<?xml version="1.0" encoding="UTF-8"?>
<svg id="Layer_2" data-name="Layer 2" xmlns="http://www.w3.org/2000/svg" xmlns:xlink="http://www.w3.org/1999/xlink" viewBox="0 0 120 120">
  <defs>
    <style>
      .cls-1 {
        clip-path: url(#clippath);
      }

      .cls-2 {
        fill: #ffce00;
      }

      .cls-3 {
        fill: none;
      }
    </style>
    <clipPath id="clippath">
      <circle class="cls-3" cx="60" cy="60" r="60"/>
    </clipPath>
  </defs>
  <g id="Layer_1-2" data-name="Layer 1">
    <circle class="cls-2" cx="60" cy="60" r="60"/>
    <g class="cls-1">
      <g>
        <path d="m55.535644531,86.393188477c2.708984375-7.550439453.922167969-15.446679688-4.841503906-21.210400391l-17.233398438-17.233447266c-3.688769531-3.688769531-3.631152344-8.414941406-2.30546875-11.584960938.634033203-1.55625,3.227636719-6.570654297,9.798291016-6.570654297h18.847216797c1.729101562-3.919287109,4.265087891-7.204589844,7.377490234-9.740625v-.057568359h-26.146484375v.057568359h-.020654297v-.057568359c-8.414990234,0-15.619580078,4.841503906-18.847265625,12.564794922-3.227636719,7.781005859-1.498535156,16.311230469,4.437988281,22.247851562l17.233447266,17.233447266c3.688769531,3.688671875,3.631152344,8.414990234,2.30546875,11.585009766-1.325537109,3.169970703-4.6109375,6.570605469-9.798193359,6.570605469h-4.050390625v-.008398437H4.1609375c-2.7109375,0-4.9078125,2.196875-4.9078125,4.9078125s2.196875,4.9078125,4.9078125,4.9078125h28.13125v-.008935547h3.992724609c8.414990234,0,15.619580078-4.841503906,18.847265625-12.564892578.115283203-.345800781.288232422-.691601562.403466797-1.037451172Z"/>
        <path d="m115.8765625,19.995874023h-25.477636719v-.000341797h-6.678808594c-7.319970703,0-13.775244141,3.631152344-17.406396484,9.740625-.576416016.864550781-1.037402344,1.844335938-1.440917969,2.824169922-.115283203.345849609-.288232422.691650391-.403466797,1.037451172-2.651269531,7.550439453-.864550781,15.504345703,4.841503906,21.210400391l17.233398438,17.233447266c3.688769531,3.688671875,3.631152344,8.414990234,2.30546875,11.585009766-1.268017578,3.169970703-4.553271484,6.570605469-9.798291016,6.570605469h-18.789550781c-1.729150391,3.919238281-4.265185547,7.204589844-7.377490234,9.740527344h26.167041016c8.415087891,0,15.619677734-4.783740234,18.847314453-12.564746094,3.170019531-7.781005859,1.498583984-16.311279297-4.438085938-22.247851563l-17.291015625-17.233398437c-3.688720703-3.688769531-3.631103516-8.414941406-2.305517578-11.585009766.691699219-1.55625,3.285351563-6.570605469,9.856005859-6.570605469h6.036132812v.000341797h26.1203125c2.68984375,0,4.8703125-2.18046875,4.8703125-4.8703125s-2.18046875-4.8703125-4.8703125-4.8703125Z"/>
      </g>
    </g>
  </g>
</svg>