<?xml version="1.0" encoding="utf-8"?>
<!-- Generator: Adobe Illustrator 27.1.0, SVG Export Plug-In . SVG Version: 6.00 Build 0)  -->
<svg version="1.1" id="Layer_1" xmlns="http://www.w3.org/2000/svg" xmlns:xlink="http://www.w3.org/1999/xlink" x="0px" y="0px"
	 viewBox="0 0 760 139.5" style="enable-background:new 0 0 760 139.5;" xml:space="preserve">
<style type="text/css">
	.st0{display:none;}
	.st1{display:inline;fill:none;stroke:#000000;stroke-width:20;stroke-linecap:round;stroke-linejoin:round;stroke-miterlimit:10;}
	.st2{fill:#FFCE00;}
</style>
<g class="st0">
	<path class="st1" d="M665,8H305.3c-17.8,0-26.7,21.5-14.1,34.1l22.2,22.2C326,77,317,98.5,299.2,98.5H26.9"/>
	<path class="st1" d="M733,42H373.3c-17.8,0-26.7,21.5-14.1,34.1l22.2,22.2c12.6,12.6,3.7,34.1-14.1,34.1H94.9"/>
</g>
<g>
	<g>
		<path d="M500.7,139.3h-15.4V91.8c0-2.5,0.3-6,1-10.5l-13.8,49.2h-8.1l-13.9-49.2c0.6,4.6,1,8,1,10.5v47.5h-15.4V43h15.1L468,96.2
			c0.2,0.6,0.3,2,0.4,4.4c0-1,0.1-2.5,0.4-4.4L485.6,43h15.1V139.3z"/>
		<path d="M567.5,130.5c0,5.9-3.2,8.8-9.7,8.8H523c-6.3,0-9.5-2.9-9.5-8.8V51.8c0-5.9,3.2-8.9,9.5-8.9h34.7c6.5,0,9.7,3,9.7,8.9
			V130.5z M551.5,126.9V55.3h-21.9v71.6H551.5z"/>
		<path d="M626.8,55.7h-17.6v83.5h-15.9V55.7h-17.6V43h51.2V55.7z"/>
		<path d="M688.9,130.5c0,5.9-3.2,8.8-9.7,8.8h-34.7c-6.3,0-9.5-2.9-9.5-8.8V51.8c0-5.9,3.2-8.9,9.5-8.9h34.7c6.5,0,9.7,3,9.7,8.9
			V130.5z M672.9,126.9V55.3h-21.9v71.6H672.9z"/>
		<path d="M756.5,139.3h-16.7l-17.6-44.7v-8.7h15.7V55.3h-20.2v83.9h-16V43h42.5c6.4,0,9.6,3,9.6,8.9v35c0,4.1-1.5,6.7-4.6,7.9
			c-1.6,0.6-5.1,0.9-10.4,0.9L756.5,139.3z"/>
	</g>
	<g>
		<path d="M53.6,13.7H35.9v83.5H20V13.7H2.4V1h51.2V13.7z"/>
		<path d="M115.6,88.5c0,5.9-3.2,8.8-9.7,8.8H71.2c-6.3,0-9.5-2.9-9.5-8.8V9.8c0-5.9,3.2-8.9,9.5-8.9h34.7c6.5,0,9.7,3,9.7,8.9V88.5
			z M99.6,84.9V13.3H77.7v71.6H99.6z"/>
		<path d="M181.8,79.1c0,5.7-1.9,10.1-5.6,13.3c-3.7,3.2-8.8,4.8-15.1,4.8h-32.6V1h32.6c6.3,0,11.4,1.6,15.1,4.9
			c3.7,3.3,5.6,7.7,5.6,13.4V79.1z M165.7,76.7V21.4c0-5.4-3.1-8.1-9.4-8.1h-11.9v71.6H156C162.5,84.9,165.7,82.2,165.7,76.7z"/>
		<path d="M248.1,88.5c0,5.9-3.2,8.8-9.7,8.8h-34.7c-6.3,0-9.5-2.9-9.5-8.8V9.8c0-5.9,3.2-8.9,9.5-8.9h34.7c6.5,0,9.7,3,9.7,8.9
			V88.5z M232.1,84.9V13.3h-21.9v71.6H232.1z"/>
	</g>
	<g>
		<g>
			<path class="st2" d="M309.4,0.7c-14.6,0-27.1,8.4-32.7,21.8c-5.6,13.5-2.6,28.3,7.7,38.6L314.3,91c6.4,6.4,6.3,14.6,4,20.1
				c-2.3,5.5-8,11.4-17,11.4H8.6c-4.7,0-8.5,3.8-8.5,8.5s3.8,8.5,8.5,8.5h292.6c14.6,0,27.1-8.4,32.7-21.8c0.2-0.6,0.5-1.2,0.7-1.8
				c4.7-13.1,1.6-26.8-8.4-36.8l-29.9-29.9c-6.4-6.4-6.3-14.6-4-20.1c1.1-2.7,5.6-11.4,17-11.4H342c3-6.8,7.4-12.5,12.8-16.9H309.4z
				"/>
		</g>
		<g>
			<path class="st2" d="M759.2,9.1c0,4.7-3.8,8.5-8.5,8.5H383.5c-11.4,0-15.9,8.7-17.1,11.4c-2.3,5.5-2.4,13.7,4,20.1L400.4,79
				c10.3,10.3,13.2,25.1,7.7,38.6c-5.6,13.5-18.1,21.8-32.7,21.8h-45.4c5.4-4.4,9.8-10.1,12.8-16.9h32.6c9.1,0,14.8-5.9,17-11.4
				c2.3-5.5,2.4-13.7-4-20.1l-29.9-29.9c-9.9-9.9-13-23.7-8.4-36.8c0.2-0.6,0.5-1.2,0.7-1.8c0.7-1.7,1.5-3.4,2.5-4.9
				C359.6,7,370.8,0.7,383.5,0.7h367.3C755.4,0.7,759.2,4.5,759.2,9.1z"/>
		</g>
	</g>
</g>
</svg>
