<?xml version="1.0" encoding="utf-8"?>
<!-- Generator: Adobe Illustrator 27.1.0, SVG Export Plug-In . SVG Version: 6.00 Build 0)  -->
<svg version="1.1" id="Layer_1" xmlns="http://www.w3.org/2000/svg" xmlns:xlink="http://www.w3.org/1999/xlink" x="0px" y="0px"
	 viewBox="0 0 396.4 276.7" style="enable-background:new 0 0 396.4 276.7;" xml:space="preserve">
<style type="text/css">
	.st0{fill:#2D3277;}
	.st1{fill:#FFE600;}
	.st2{fill:#FFFFFF;}
</style>
<path class="st0" d="M396.4,132.2C396.4,61,307.7,2.7,198.2,2.7S0,61,0,132.2v7.5c0,75.8,77.4,137,198.2,137
	c121.2,0,198.2-61.2,198.2-137V132.2z"/>
<path class="st1" d="M389.3,132.2c0,67-85.4,121.6-190.3,121.6S8.7,199.2,8.7,132.2S94.1,10.6,199,10.6S389.3,65.2,389.3,132.2z"/>
<g>
	<path class="st2" d="M135.7,93.9c0,0-2.1,2.1-0.8,3.7c2.9,3.7,12.1,5.8,21.7,3.7c5.4-1.2,12.9-7.1,19.6-12.5
		c7.5-5.8,15-12.1,22.5-14.2c7.9-2.5,12.9-1.2,16.2-0.4c3.7,1.2,7.9,3.7,15,8.7c12.9,9.6,65.4,55.4,74.5,63.3
		c7.1-3.3,39.6-17.1,83.7-27.1c-3.7-23.3-17.9-45-39.6-62.5c-30,12.5-67,19.2-103.3,1.7c0,0-19.6-9.2-39.1-8.7
		C177.4,50.6,165.3,62.7,152,76L135.7,93.9z"/>
	<path class="st2" d="M302.3,151.4c-0.4-0.4-61.6-53.7-75.4-64.1c-7.9-5.8-12.5-7.5-17.1-8.3c-2.5-0.4-5.8,0-8.3,0.8
		c-6.2,1.7-15,7.5-22.5,13.3c-7.9,6.2-15,12.1-21.7,13.3c-8.7,2.1-19.2-0.4-23.7-3.7c-2.1-1.2-3.3-2.9-4.2-4.6
		c-1.7-4.2,1.7-7.5,2.1-7.9l16.7-18.3l5.8-5.8c-5.4,0.8-10.4,2.1-15.4,3.3c-6.2,1.7-12.1,3.3-17.9,3.3c-2.5,0-15.8-2.1-18.3-2.9
		C87,65.6,73.7,61.4,53.7,52.3c-23.7,17.9-40,40-44.6,64.5c3.3,0.8,9.2,2.5,11.2,2.9c54.1,12.1,70.8,24.6,74.1,27.1
		c3.3-3.7,7.9-5.8,13.3-5.8c5.8,0,11.2,2.9,14.6,7.5c2.9-2.5,7.5-4.6,12.9-4.6c2.5,0,5,0.4,7.9,1.2c6.2,2.1,9.2,6.2,10.8,10
		c2.1-0.8,4.6-1.7,7.5-1.7c2.9,0,5.8,0.8,9.2,2.1c10,4.2,11.7,14.2,10.8,21.7h2.1c12.1,0,21.7,9.6,21.7,21.7c0,3.7-0.8,7.1-2.5,10
		c3.3,1.7,11.2,5.8,18.7,5c5.8-0.8,7.9-2.5,8.7-3.7c0.4-0.8,1.2-1.7,0.4-2.5l-15.4-17.1c0,0-2.5-2.5-1.7-3.3s2.5,0.4,3.7,1.2
		c7.9,6.7,17.1,16.2,17.1,16.2s0.8,1.2,4.2,2.1c2.9,0.4,8.3,0,12.1-2.9c0.8-0.8,2.1-1.7,2.5-2.5c3.7-5-0.4-10-0.4-10l-17.9-20
		c0,0-2.5-2.5-1.7-3.3c0.8-0.8,2.5,0.4,3.7,1.2c5.8,4.6,13.7,12.9,21.2,20.4c1.7,1.2,8.3,5.4,17.1-0.4c5.4-3.7,6.7-7.9,6.2-11.2
		c-0.4-4.2-3.7-7.5-3.7-7.5l-24.2-24.6c0,0-2.5-2.1-1.7-3.3c0.8-0.8,2.5,0.4,3.7,1.2c7.9,6.7,28.7,25.8,28.7,25.8
		c0.4,0,7.5,5.4,16.7-0.4c3.3-2.1,5.4-5,5.4-8.7C306.9,155.1,302.3,151.4,302.3,151.4z"/>
	<path class="st2" d="M184.5,182.6c-3.7,0-7.9,2.1-8.3,2.1s0-1.7,0.4-2.5c0.4-0.8,5.4-15.8-6.7-21.2c-9.2-4.2-15,0.4-16.7,2.5
		c-0.4,0.4-0.8,0.4-0.8,0c0-2.5-1.2-10-9.6-12.5c-11.7-3.7-18.7,4.6-20.8,7.5c-0.8-6.7-6.2-11.7-13.3-11.7
		c-7.5,0-13.3,5.8-13.3,13.3c0,7.5,5.8,13.3,13.3,13.3c3.7,0,6.7-1.2,9.2-3.7v0.4c-0.4,3.3-1.7,15.4,10.8,20c5,2.1,9.2,0.4,12.9-2.1
		c1.2-0.8,1.2-0.4,1.2,0.4c-0.4,2.9,0,9.6,9.6,13.3c7.1,2.9,11.2,0,13.7-2.5c1.2-1.2,1.7-0.8,1.7,0.8c0.4,8.7,7.9,15.8,16.7,15.8
		c9.2,0,16.7-7.5,16.7-16.7S193.6,182.6,184.5,182.6L184.5,182.6z"/>
</g>
<path class="st0" d="M304.8,145.1c-18.7-16.2-62-54.1-74.1-62.9c-6.7-5-11.2-7.9-15.4-8.7c-1.7-0.4-4.2-1.2-7.5-1.2
	c-2.9,0-6.2,0.4-9.6,1.7c-7.5,2.5-15,8.3-22.5,14.2l-0.4,0.4c-6.7,5.4-13.7,10.8-19.2,12.1c-2.5,0.4-4.6,0.8-7.1,0.8
	c-5.8,0-11.2-1.7-13.3-4.2c-0.4-0.4,0-1.2,0.8-2.1l16.7-17.9c12.9-12.9,25-25,53.3-25.8h1.2c17.5,0,35,7.9,37.1,8.7
	c16.7,7.9,33.3,12.1,50.4,12.1c17.9,0,36.2-4.6,55.4-13.3c-2.1-1.7-4.6-3.7-6.7-5.4C326.9,61,311,64.3,295.2,64.3
	s-31.6-3.7-47.1-11.2c-0.8-0.4-20-9.6-40.4-9.6h-1.7c-23.7,0.4-37.1,8.7-45.8,16.2c-8.7,0-16.2,2.5-22.9,4.2
	c-5.8,1.7-11.2,2.9-16.2,2.9h-6.2c-5.8,0-35-7.1-57.9-16.2c-2.5,1.7-4.6,3.3-7.1,5c24.2,10,53.7,17.5,62.9,18.3
	c2.5,0,5.4,0.4,8.3,0.4c6.2,0,12.1-1.7,18.3-3.3c3.7-0.8,7.5-2.1,11.2-2.9l-3.3,3.3l-16.7,18.3c-1.2,1.2-4.2,5-2.5,9.2
	c0.8,1.7,2.5,3.3,4.6,5c4.2,2.5,11.2,4.6,17.9,4.6c2.5,0,5-0.4,7.1-0.8c7.1-1.7,14.6-7.5,22.1-13.7c6.2-5,15-11.2,21.7-13.3
	c2.1-0.4,4.2-0.8,6.2-0.8h1.7c4.6,0.4,8.7,2.1,16.7,7.9c13.7,10.4,75,63.7,75.4,64.1c0,0,3.7,3.3,3.7,9.2c0,2.9-2.1,5.8-5,7.9
	c-2.5,1.7-5.4,2.5-7.9,2.5c-4.2,0-7.1-2.1-7.1-2.1s-21.2-19.2-28.7-25.8c-1.2-1.2-2.5-2.1-3.7-2.1c-0.8,0-1.2,0.4-1.7,0.8
	c-1.2,1.7,0,3.7,1.7,5l24.6,24.6c0,0,2.9,2.9,3.3,6.7c0,4.2-1.7,7.5-5.8,10c-2.9,2.1-5.8,2.9-8.7,2.9c-3.7,0-6.2-1.7-7.1-2.1
	l-3.7-3.3c-6.2-6.2-12.9-12.9-17.9-16.7c-1.2-0.8-2.5-2.1-3.7-2.1c-0.4,0-1.2,0-1.7,0.8c-0.4,0.4-0.8,1.7,0.4,3.7
	c0.4,0.8,1.2,1.2,1.2,1.2l17.9,20c0,0,3.7,4.6,0.4,8.3l-0.8,0.8l-1.7,1.7c-2.9,2.5-7.1,2.9-8.7,2.9h-2.5c-1.7-0.4-2.9-0.8-3.7-1.7
	c-0.8-1.2-10-10-17.5-16.2c-0.8-0.8-2.1-1.7-3.3-1.7c-0.4,0-1.2,0.4-1.7,0.8c-1.2,1.7,0.8,4.2,1.7,5l15.4,16.7c0,0,0,0.4-0.4,1.2
	c-0.4,0.8-2.5,2.5-7.9,3.3h-2.1c-5.8,0-11.7-2.9-15-4.6c1.2-2.9,2.1-6.2,2.1-9.6c0-12.5-10-22.5-22.5-22.5h-0.8
	c0.4-5.8-0.4-16.7-11.7-21.2c-3.3-1.2-6.2-2.1-9.6-2.1c-2.5,0-4.6,0.4-7.1,1.2c-2.5-4.6-6.2-7.9-11.2-9.6c-2.9-0.8-5.4-1.2-8.3-1.2
	c-4.6,0-8.7,1.2-12.5,4.2c-3.7-4.5-9.2-7.1-15-7.1c-5,0-10,2.1-13.3,5.4c-4.6-3.7-23.3-15.4-73.7-27.1c-2.5-0.4-7.9-2.1-11.2-3.3
	c-0.4,2.5-0.8,5.4-1.2,8.3c0,0,9.2,2.1,11.2,2.5C70,138.9,87,150.9,89.9,153c-0.8,2.5-1.2,5-1.2,7.5c0,10.8,8.7,19.2,19.2,19.2
	c1.2,0,2.5,0,3.7-0.4c1.7,7.9,6.7,13.7,14.6,16.7c2.5,0.8,4.6,1.2,6.7,1.2c1.2,0,2.9,0,4.6-0.4c1.2,3.7,4.6,8.3,12.1,11.2
	c2.5,1.2,5,1.7,7.5,1.7c2.1,0,4.2-0.4,5.8-1.2c3.3,8.3,11.7,14.2,20.8,14.2c6.2,0,12.1-2.5,16.2-7.1c3.7,2.1,11.2,5.8,19.2,5.8h2.9
	c7.9-0.8,11.2-4.2,12.9-6.2c0.4-0.4,0.4-0.8,0.8-1.2c1.7,0.4,3.7,0.8,6.2,0.8c4.2,0,8.3-1.2,12.5-4.6c4.2-2.9,7.1-7.1,7.1-10.8
	c1.2,0.4,2.9,0.4,4.2,0.4c4.2,0,8.7-1.2,12.9-4.2c7.9-5,9.2-12.1,9.2-16.2c1.2,0.4,2.9,0.4,4.2,0.4c4.2,0,8.3-1.2,12.1-3.7
	c5-3.3,7.9-7.9,8.3-13.3c0.4-3.7-0.8-7.5-2.5-10.8c13.3-5.8,43.3-16.7,79.1-25c0-2.9-0.4-5.4-1.2-8.3
	C344.8,127.6,312.7,141.4,304.8,145.1L304.8,145.1z M184.5,214.7c-8.3,0-15-6.7-15.4-15c0-0.8,0-2.5-1.7-2.5c-0.8,0-1.2,0.4-2.1,0.8
	c-1.7,1.7-4.2,3.3-7.5,3.3c-1.7,0-3.3-0.4-5-1.2c-8.7-3.7-9.2-9.6-8.7-12.1c0-0.8,0-1.2-0.4-1.7l-0.4-0.4h-0.4c-0.4,0-0.8,0-1.7,0.8
	c-2.5,1.7-5,2.5-7.5,2.5c-1.2,0-2.9-0.4-4.2-0.8c-11.7-4.6-10.8-15.4-10-18.7c0-0.8,0-1.2-0.4-1.7l-0.8-0.8l-0.8,0.8
	c-2.5,2.1-5.4,3.3-8.3,3.3c-6.7,0-12.1-5.4-12.1-12.1s5.4-12.1,12.1-12.1c5.8,0,11.2,4.6,12.1,10.4l0.4,3.3l1.7-2.9
	c0-0.4,5-7.9,14.2-7.5c1.7,0,3.3,0.4,5.4,0.8c7.1,2.1,8.3,8.7,8.3,11.2c0,1.7,1.2,1.7,1.2,1.7c0.4,0,1.2-0.4,1.2-0.8
	c1.2-1.2,4.2-3.7,8.7-3.7c2.1,0,4.2,0.4,6.7,1.7c11.2,5,6.2,19.2,6.2,19.6c-0.8,2.5-1.2,3.3,0,4.2h0.8c0.4,0,1.2,0,2.1-0.4
	c1.7-0.4,3.7-1.2,5.8-1.2c8.3,0,15.4,7.1,15.4,15.4C199.9,208,192.8,214.7,184.5,214.7L184.5,214.7z"/>
</svg>
