<?xml version="1.0" encoding="UTF-8"?>
<svg id="Layer_2" data-name="Layer 2" xmlns="http://www.w3.org/2000/svg" fill="#373737" viewBox="0 0 99.854431152 98.217468262">
  <path d="m80.984863281,89.674987793c-2.629699707-2.629455566-2.56817627-5.978149414-1.633789062-8.235351562.456787109-1.097045898,2.305175781-4.663085938,6.976257324-4.663085938h13.338256836c.05670166-.127746582.129760742-.242370605.188842773-.368286133v-6.416748047h-15.578979492c-5.072692871.690734863-9.308349609,3.92767334-11.325744629,8.79864502-2.284179688,5.514953613-1.081848145,11.562438965,3.137878418,15.782104492l3.645202637,3.645202637h9.794494629l-8.542419434-8.542480469Z"/>
  <path d="m4.895324707,69.991516113H0v6.416748047c1.193603516-2.543579102,2.860290527-4.716918945,4.895324707-6.416748047Z"/>
  <path d="m37.854614258,76.77746582v-.037475586c-.038574219.013122559-.077819824.024658203-.116516113.037475586h.116516113Z"/>
  <path d="m36.049316406,69.991516113H14.719360352c-.890197754.121520996-1.746398926.340209961-2.577697754.613647461h20.919372559c1.130432129,0,2.115783691-.240844727,2.98828125-.613647461Z"/>
  <path d="m9.799255371,81.438720703c.343139648-.821044922,1.46661377-3.024658203,3.96862793-4.080871582h-1.6953125v-6.731201172c-3.186218262,1.065734863-5.886901855,3.196533203-7.658874512,6.150817871-.38470459.634338379-.724365234,1.305480957-1.014953613,2.01348877-.094116211.237365723-.192321777.491088867-.282348633.736572266-1.911193848,5.356994629-.634338379,10.988098145,3.421203613,15.043701172l3.646240234,3.646240234h9.793151855l-8.540771484-8.540771484c-2.631408691-2.631408691-2.570007324-5.979003906-1.636962891-8.237976074Z"/>
  <path d="m13.767883301,77.357849121h21.579406738c.822692871-.125366211,1.619750977-.324279785,2.390808105-.580383301.038696289-.012817383.077941895-.024353027.116516113-.037475586,3.832580566-1.309387207,6.942810059-4.186645508,8.583862305-8.148620605.097106934-.238220215.193237305-.491577148.284545898-.739379883,1.911315918-5.355285645.634460449-10.985900879-3.422363281-15.042724609l-12.243041992-12.243041992c-2.629699707-2.629455566-2.568115234-5.978088379-1.633728027-8.235351562.456787109-1.096984863,2.305175781-4.663085938,6.976257324-4.663085938h13.338256836c1.201599121-2.70892334,2.948425293-5.001037598,5.08416748-6.784973145h-20.474365234c-5.072692871.690673828-9.308288574,3.927612305-11.325683594,8.79864502-2.284179688,5.514892578-1.081848145,11.56237793,3.137817383,15.782104492l12.243041992,12.242980957c2.629638672,2.629272461,2.568115234,5.97833252,1.633728027,8.235168457-.649230957,1.569519043-1.98815918,3.195495605-3.987792969,4.049804688-.872497559.372802734-1.857849121.613647461-2.98828125.613647461H12.072570801v6.752685547h1.6953125Z"/>
  <path d="m87.781860352,27.668762207v-.037536621c-.038635254.013183594-.07800293.024658203-.116699219.037536621h.116699219Z"/>
  <path d="m61.999755859,21.517944336c-3.186157227,1.065734863-5.88684082,3.196533203-7.658874512,6.150817871-.384643555.634277344-.724365234,1.305419922-1.014892578,2.013427734-.094116211.237365723-.192382812.491088867-.282348633.736633301-1.911193848,5.356933594-.634338379,10.988098145,3.421203613,15.043640137l12.244445801,12.244445801c2.627319336,2.631408691,2.565917969,5.979003906,1.632873535,8.233886719-.933044434,2.254943848-3.253417969,4.665344238-6.977539062,4.665344238h-13.337097168c-1.193054199,2.69128418-2.927246094,4.970947266-5.046447754,6.751708984h20.679016113c4.964416504-.760559082,9.098083496-3.97467041,11.082580566-8.765136719,2.283569336-5.516540527,1.080383301-11.565124512-3.13885498-15.784423828l-12.240356445-12.24029541c-2.631408691-2.631469727-2.570068359-5.979003906-1.636962891-8.238037109.343139648-.821044922,1.466674805-3.024719238,3.96875-4.080871582h-1.695495605v-6.731140137Z"/>
  <path d="m85.97644043,20.8828125h-21.32989502c-.890258789.121520996-1.746398926.340209961-2.577758789.613647461h20.919494629c1.130432129,0,2.115661621-.240844727,2.98815918-.613647461Z"/>
  <path d="m89.964355469,16.832946777c-.649291992,1.569519043-1.988342285,3.195556641-3.987915039,4.049865723-.872497559.372802734-1.857727051.613647461-2.98815918.613647461h-20.988525391v6.752624512h23.274780273c.822631836-.125366211,1.619628906-.324279785,2.390625-.580322266.038696289-.012878418.078063965-.024353027.116699219-.037536621,3.832519531-1.309387207,6.942749023-4.186645508,8.583862305-8.148620605.097106934-.23815918.193237305-.491577148.284545898-.739318848,1.911315918-5.355285645.634399414-10.985961914-3.422424316-15.042785645l-3.700500488-3.700500488h-9.794555664l8.59777832,8.59777832c2.629699707,2.629333496,2.56817627,5.97833252,1.633789062,8.235168457Z"/>
  <path d="m94.908325195,28.249084473h4.946105957v-6.555847168c-1.189453125,2.603149414-2.880371094,4.820007324-4.946105957,6.555847168Z"/>
  <path d="m18.782043457,8.598144531c2.627380371,2.631469727,2.565979004,5.979003906,1.632873535,8.233947754-.933044434,2.254882812-3.253417969,4.665283203-6.977539062,4.665283203H.100280762c-.030090332.067871094-.069519043.128356934-.100280762.195739746v6.555969238h15.732849121c4.964477539-.760559082,9.098083496-3.974609375,11.082580566-8.765136719,2.283569336-5.516540527,1.080383301-11.565124512-3.13885498-15.784362793l-3.699584961-3.699584961h-9.79309082l8.598144531,8.598144531Z"/>
</svg>